<?xml version="1.0" standalone="no"?><!DOCTYPE svg PUBLIC "-//W3C//DTD SVG 1.1//EN" "http://www.w3.org/Graphics/SVG/1.1/DTD/svg11.dtd"><svg t="1668309283624" class="icon" viewBox="0 0 1365 1024" version="1.1" xmlns="http://www.w3.org/2000/svg" p-id="4549" xmlns:xlink="http://www.w3.org/1999/xlink" width="170.625" height="128"><path d="M1194.666667 0H170.666667a170.666667 170.666667 0 0 0-170.666667 170.666667v682.666666a170.666667 170.666667 0 0 0 170.666667 170.666667h1024a170.666667 170.666667 0 0 0 170.666666-170.666667V170.666667a170.666667 170.666667 0 0 0-170.666666-170.666667zM170.666667 227.555556a56.888889 56.888889 0 1 1 56.888889-56.888889 56.888889 56.888889 0 0 1-56.888889 56.888889z m170.666666 0a56.888889 56.888889 0 1 1 56.888889-56.888889 56.888889 56.888889 0 0 1-56.888889 56.888889z m170.666667 0a56.888889 56.888889 0 1 1 56.888889-56.888889 56.888889 56.888889 0 0 1-56.888889 56.888889z" fill="#3E2AD1" p-id="4550"></path></svg>