<?xml version="1.0" standalone="no"?><!DOCTYPE svg PUBLIC "-//W3C//DTD SVG 1.1//EN" "http://www.w3.org/Graphics/SVG/1.1/DTD/svg11.dtd"><svg t="1668309269533" class="icon" viewBox="0 0 1365 1024" version="1.1" xmlns="http://www.w3.org/2000/svg" p-id="4409" xmlns:xlink="http://www.w3.org/1999/xlink" width="170.625" height="128"><path d="M1194.666667 1024H170.666667a170.666667 170.666667 0 0 1-170.666667-170.666667V284.444444a56.888889 56.888889 0 0 1 113.777778 0v568.888889a56.888889 56.888889 0 0 0 56.888889 56.888889h1024a56.888889 56.888889 0 0 0 56.888889-56.888889V170.666667a56.888889 56.888889 0 0 0-56.888889-56.888889H625.777778a56.888889 56.888889 0 0 1 0-113.777778h568.888889a170.666667 170.666667 0 0 1 170.666666 170.666667v682.666666a170.666667 170.666667 0 0 1-170.666666 170.666667zM56.888889 0a56.888889 56.888889 0 1 0 56.888889 56.888889 56.888889 56.888889 0 0 0-56.888889-56.888889z m170.666667 0a56.888889 56.888889 0 1 0 56.888888 56.888889 56.888889 56.888889 0 0 0-56.888888-56.888889z m170.666666 0a56.888889 56.888889 0 1 0 56.888889 56.888889 56.888889 56.888889 0 0 0-56.888889-56.888889z" fill="#3E2AD1" p-id="4410"></path></svg>